<?xml version="1.0" encoding="UTF-8"?>
<!DOCTYPE svg PUBLIC "-//W3C//DTD SVG 1.1//EN" "http://www.w3.org/Graphics/SVG/1.1/DTD/svg11.dtd">
<svg xmlns="http://www.w3.org/2000/svg" version="1.1" width="505px" height="232px" style="shape-rendering:geometricPrecision; text-rendering:geometricPrecision; image-rendering:optimizeQuality; fill-rule:evenodd; clip-rule:evenodd" xmlns:xlink="http://www.w3.org/1999/xlink">
<g><path style="opacity:1" fill="#000000" d="M -0.5,-0.5 C 167.833,-0.5 336.167,-0.5 504.5,-0.5C 504.5,76.8333 504.5,154.167 504.5,231.5C 336.167,231.5 167.833,231.5 -0.5,231.5C -0.5,154.167 -0.5,76.8333 -0.5,-0.5 Z"/></g>
<g><path style="opacity:1" fill="#d22a2a" d="M 71.5,115.5 C 68.9845,127.694 62.9845,137.861 53.5,146C 48.5322,149.356 43.8656,149.19 39.5,145.5C 29.6088,122.005 19.6088,98.5052 9.5,75C 43.5838,68.2851 64.2505,81.7851 71.5,115.5 Z"/></g>
<g><path style="opacity:1" fill="#fcfcfc" d="M 39.5,145.5 C 43.8656,149.19 48.5322,149.356 53.5,146C 62.9845,137.861 68.9845,127.694 71.5,115.5C 73.5155,111.443 75.0155,107.109 76,102.5C 87.2766,77.283 106.443,68.283 133.5,75.5C 124.04,97.7125 114.874,120.046 106,142.5C 96.7417,161.045 81.9084,168.212 61.5,164C 55.0864,161.38 49.253,157.88 44,153.5C 41.8431,151.183 40.3431,148.516 39.5,145.5 Z"/></g>
<g><path style="opacity:1" fill="#c82727" d="M 165.5,89.5 C 170.118,88.9239 174.285,89.9239 178,92.5C 178.684,93.7839 178.517,94.9505 177.5,96C 173.889,95.3731 170.223,95.0397 166.5,95C 163.068,97.367 162.735,100.034 165.5,103C 178.675,106.906 181.009,114.239 172.5,125C 166.804,128.257 161.138,128.257 155.5,125C 152.674,122.136 153.174,119.969 157,118.5C 159.569,119.786 162.236,120.786 165,121.5C 170.192,120.398 171.692,117.398 169.5,112.5C 166.125,111.097 162.791,109.597 159.5,108C 155.385,99.7345 157.385,93.5678 165.5,89.5 Z"/></g>
<g><path style="opacity:1" fill="#ca2828" d="M 181.5,89.5 C 190.833,89.5 200.167,89.5 209.5,89.5C 209.643,91.2624 209.309,92.9291 208.5,94.5C 205.232,95.487 201.898,95.8204 198.5,95.5C 197.167,106.163 195.834,116.83 194.5,127.5C 192.5,127.5 190.5,127.5 188.5,127.5C 189.02,116.783 190.02,106.116 191.5,95.5C 188.167,95.5 184.833,95.5 181.5,95.5C 181.5,93.5 181.5,91.5 181.5,89.5 Z"/></g>
<g><path style="opacity:1" fill="#c92827" d="M 213.5,89.5 C 220.391,88.9013 227.058,89.7346 233.5,92C 237.27,99.9637 235.604,106.464 228.5,111.5C 230.56,116.62 232.893,121.62 235.5,126.5C 233.235,127.647 230.902,127.814 228.5,127C 225.949,122.729 223.782,118.229 222,113.5C 220.644,112.62 219.144,112.286 217.5,112.5C 216.915,117.515 216.248,122.515 215.5,127.5C 213.5,127.5 211.5,127.5 209.5,127.5C 210.294,114.764 211.627,102.097 213.5,89.5 Z"/></g>
<g><path style="opacity:1" fill="#c92727" d="M 243.5,89.5 C 250.833,89.5 258.167,89.5 265.5,89.5C 265.5,91.1667 265.5,92.8333 265.5,94.5C 260.5,94.5 255.5,94.5 250.5,94.5C 249.838,98.4659 249.505,102.466 249.5,106.5C 253.167,106.5 256.833,106.5 260.5,106.5C 260.5,108.167 260.5,109.833 260.5,111.5C 256.5,111.5 252.5,111.5 248.5,111.5C 247.886,115.135 247.552,118.802 247.5,122.5C 252.167,122.5 256.833,122.5 261.5,122.5C 261.5,124.167 261.5,125.833 261.5,127.5C 254.167,127.5 246.833,127.5 239.5,127.5C 241.133,114.869 242.467,102.202 243.5,89.5 Z"/></g>
<g><path style="opacity:1" fill="#c82727" d="M 280.5,89.5 C 283.167,89.5 285.833,89.5 288.5,89.5C 290.544,102.299 293.211,114.965 296.5,127.5C 294.167,127.5 291.833,127.5 289.5,127.5C 289.149,124.762 288.482,122.096 287.5,119.5C 282.833,118.167 278.167,118.167 273.5,119.5C 272.294,122.079 270.961,124.579 269.5,127C 267.527,127.495 265.527,127.662 263.5,127.5C 268.777,114.673 274.444,102.007 280.5,89.5 Z"/></g>
<g><path style="opacity:1" fill="#c62727" d="M 303.5,89.5 C 306.247,89.1866 308.914,89.52 311.5,90.5C 314.048,98.3156 316.882,105.982 320,113.5C 324.959,105.75 329.792,97.917 334.5,90C 336.473,89.5045 338.473,89.3379 340.5,89.5C 339.694,102.227 338.361,114.894 336.5,127.5C 334.5,127.5 332.5,127.5 330.5,127.5C 331.995,119.544 332.828,111.544 333,103.5C 328.831,109.166 325.165,115.166 322,121.5C 319.67,123.032 317.67,122.698 316,120.5C 313.667,114.167 311.333,107.833 309,101.5C 307.359,110.104 306.192,118.771 305.5,127.5C 303.5,127.5 301.5,127.5 299.5,127.5C 300.833,114.834 302.167,102.167 303.5,89.5 Z"/></g>
<g><path style="opacity:1" fill="#ca2828" d="M 347.5,89.5 C 354.833,89.5 362.167,89.5 369.5,89.5C 369.579,90.9305 369.246,92.2638 368.5,93.5C 363.544,94.4941 358.544,94.8275 353.5,94.5C 352.979,98.4809 352.646,102.481 352.5,106.5C 356.5,106.5 360.5,106.5 364.5,106.5C 364.5,108.167 364.5,109.833 364.5,111.5C 360.167,111.5 355.833,111.5 351.5,111.5C 350.902,116.813 350.569,122.146 350.5,127.5C 348.167,127.5 345.833,127.5 343.5,127.5C 344.34,114.778 345.674,102.112 347.5,89.5 Z"/></g>
<g><path style="opacity:1" fill="#c82727" d="M 373.5,89.5 C 375.833,89.5 378.167,89.5 380.5,89.5C 379.312,100.151 378.312,110.817 377.5,121.5C 381.833,121.5 386.167,121.5 390.5,121.5C 390.34,123.199 390.506,124.866 391,126.5C 396.667,114.5 402.333,102.5 408,90.5C 410.381,89.565 412.881,89.2317 415.5,89.5C 418.787,102.03 421.454,114.697 423.5,127.5C 421.208,127.756 419.041,127.423 417,126.5C 416.433,123.832 415.933,121.166 415.5,118.5C 410.821,118.334 406.155,118.501 401.5,119C 400.438,121.791 399.105,124.457 397.5,127C 388.173,127.5 378.839,127.666 369.5,127.5C 371.133,114.869 372.467,102.202 373.5,89.5 Z"/></g>
<g><path style="opacity:1" fill="#c92727" d="M 431.5,89.5 C 436.844,89.334 442.177,89.5006 447.5,90C 454.948,93.7177 456.448,99.2177 452,106.5C 450.316,108.351 448.483,110.018 446.5,111.5C 449.402,116.632 451.735,121.965 453.5,127.5C 451.143,127.663 448.81,127.497 446.5,127C 444.538,122.907 442.704,118.741 441,114.5C 439.556,112.845 437.722,112.178 435.5,112.5C 434.836,117.473 434.503,122.473 434.5,127.5C 432.167,127.5 429.833,127.5 427.5,127.5C 428.34,114.778 429.674,102.112 431.5,89.5 Z"/></g>
<g><path style="opacity:1" fill="#cb2828" d="M 462.5,89.5 C 469.5,89.5 476.5,89.5 483.5,89.5C 483.5,91.1667 483.5,92.8333 483.5,94.5C 478.5,94.5 473.5,94.5 468.5,94.5C 468.354,98.5191 468.021,102.519 467.5,106.5C 471.167,106.5 474.833,106.5 478.5,106.5C 478.5,108.167 478.5,109.833 478.5,111.5C 474.5,111.5 470.5,111.5 466.5,111.5C 466.448,115.198 466.114,118.865 465.5,122.5C 470.5,122.5 475.5,122.5 480.5,122.5C 480.579,123.93 480.246,125.264 479.5,126.5C 472.532,127.497 465.532,127.83 458.5,127.5C 459.183,114.743 460.516,102.077 462.5,89.5 Z"/></g>
<g><path style="opacity:1" fill="#0c0201" d="M 219.5,94.5 C 229.439,93.8876 231.772,97.7209 226.5,106C 223.986,107.252 221.32,107.752 218.5,107.5C 218.372,103.119 218.705,98.7853 219.5,94.5 Z"/></g>
<g><path style="opacity:1" fill="#0d0201" d="M 437.5,94.5 C 447.488,93.3342 450.154,97.1675 445.5,106C 442.649,107.289 439.649,107.789 436.5,107.5C 436.739,103.158 437.073,98.8244 437.5,94.5 Z"/></g>
<g><path style="opacity:1" fill="#100302" d="M 282.5,97.5 C 283.117,97.6107 283.617,97.944 284,98.5C 284.9,103.501 285.734,108.501 286.5,113.5C 283.102,113.82 279.768,113.487 276.5,112.5C 278.79,107.591 280.79,102.591 282.5,97.5 Z"/></g>
<g><path style="opacity:1" fill="#140403" d="M 410.5,97.5 C 412.435,102.571 413.768,107.905 414.5,113.5C 410.818,113.665 407.152,113.499 403.5,113C 405.976,107.882 408.31,102.715 410.5,97.5 Z"/></g>
</svg>
